<svg xmlns="http://www.w3.org/2000/svg" width="256" height="256" fill="none"><path fill="#1E1E1F" d="M0 0h256v256H0z"/><path fill="#E3E3E5" d="M13 13h230v204H13z"/><path fill="#D0D1D4" d="M26 26h204v178H26z"/><g filter="url(#prefix__filter0_d_38_550)"><path d="M40.656 138.5V90.9h33.32v47.6h-33.32zm19.04-9.52v-28.56h-4.76v28.56h4.76zm21.07 9.52V90.9h33.319v19.04h-4.76v4.76h4.76v23.8h-14.28v-19.04h-4.76v19.04h-14.28zm19.04-28.56v-9.52h-4.76v9.52h4.76zm35.349 9.52v9.52h19.04v9.52h-33.32V90.9h33.32v9.52h-19.04v9.52h14.28v9.52h-14.28zm25.829 19.04V90.9h14.28v38.08h4.76V90.9h14.28v47.6h-33.32zm40.109 0V90.9h14.28v47.6h-14.28z" fill="#1E1E1F"/></g><path fill-rule="evenodd" clip-rule="evenodd" d="M243 217v26H13v-26h230z" fill="#58585A"/><defs><filter id="prefix__filter0_d_38_550" x="40.656" y="90.9" width="181.717" height="54.6" filterUnits="userSpaceOnUse" color-interpolation-filters="sRGB"><feFlood flood-opacity="0" result="BackgroundImageFix"/><feColorMatrix in="SourceAlpha" values="0 0 0 0 0 0 0 0 0 0 0 0 0 0 0 0 0 0 127 0" result="hardAlpha"/><feOffset dx="7" dy="7"/><feColorMatrix values="0 0 0 0 0 0 0 0 0 0 0 0 0 0 0 0 0 0 0.3 0"/><feBlend in2="BackgroundImageFix" result="effect1_dropShadow_38_550"/><feBlend in="SourceGraphic" in2="effect1_dropShadow_38_550" result="shape"/></filter></defs></svg>